<svg fill="#000000" xmlns="http://www.w3.org/2000/svg"  viewBox="0 0 100 100" width="100px" height="100px"><path d="M 30.986328 17.992188 C 23.806328 17.992188 17.986328 23.812188 17.986328 30.992188 L 17.986328 69.992188 C 17.986328 77.172188 23.806328 82.992188 30.986328 82.992188 L 69.986328 82.992188 C 77.165328 82.992188 82.986328 77.172187 82.986328 69.992188 L 82.986328 30.992188 C 82.986328 23.812188 77.166328 17.992188 69.986328 17.992188 L 30.986328 17.992188 z M 30.986328 19.992188 L 69.986328 19.992188 C 76.061328 19.992187 80.986328 24.917188 80.986328 30.992188 L 80.986328 69.992188 C 80.986328 76.067187 76.061328 80.992188 69.986328 80.992188 L 30.986328 80.992188 C 24.911328 80.992188 19.986328 76.067188 19.986328 69.992188 L 19.986328 30.992188 C 19.986328 24.917187 24.910328 19.992187 30.986328 19.992188 z M 33.822266 22.992188 C 27.837266 22.992187 22.986328 27.843125 22.986328 33.828125 L 22.986328 67.154297 C 22.986328 73.139297 27.837266 77.992188 33.822266 77.992188 L 67.148438 77.992188 C 73.133437 77.992188 77.986328 73.140297 77.986328 67.154297 L 77.986328 48.492188 C 77.986328 48.216187 77.762328 47.992188 77.486328 47.992188 C 77.210328 47.992188 76.986328 48.216187 76.986328 48.492188 L 76.986328 67.154297 C 76.986328 72.587297 72.581437 76.992188 67.148438 76.992188 L 33.824219 76.992188 C 28.391219 76.992188 23.986328 72.587297 23.986328 67.154297 L 23.986328 33.828125 C 23.986328 28.395125 28.389266 23.992188 33.822266 23.992188 L 67.486328 23.992188 C 67.762328 23.992188 67.986328 23.768187 67.986328 23.492188 C 67.986328 23.216188 67.762328 22.992188 67.486328 22.992188 L 33.822266 22.992188 z M 39.519531 34 C 35.406111 34 32.768071 35.295299 31.181641 36.615234 C 29.59521 37.93517 29.035156 39.314453 29.035156 39.314453 A 0.50005 0.50005 0 0 0 29 39.5 L 29 65.5 A 0.50005 0.50005 0 0 0 29.855469 65.851562 C 29.855469 65.851562 30.529264 65.167232 31.966797 64.447266 C 33.40433 63.727299 35.573056 63 38.5 63 C 46.208333 63 49.080078 69.699219 49.080078 69.699219 A 0.50005 0.50005 0 0 0 50.039062 69.5 L 50.039062 40.5 A 0.50005 0.50005 0 0 0 49.984375 40.273438 C 49.984375 40.273438 46.787023 34 39.519531 34 z M 61.519531 34 C 54.252039 34 51.054687 40.273437 51.054688 40.273438 A 0.50005 0.50005 0 0 0 51 40.5 L 51 69.5 A 0.50005 0.50005 0 0 0 51.958984 69.699219 C 51.958984 69.699219 54.83073 63 62.539062 63 C 65.466007 63 67.634733 63.727299 69.072266 64.447266 C 70.509799 65.167232 71.183594 65.851562 71.183594 65.851562 A 0.50005 0.50005 0 0 0 72.039062 65.5 L 72.039062 39.5 A 0.50005 0.50005 0 0 0 72.003906 39.314453 C 72.003906 39.314453 71.441899 37.93517 69.855469 36.615234 C 68.269042 35.295299 65.632951 34 61.519531 34 z M 39.519531 35 C 46.133945 35 48.970855 40.52445 49.039062 40.658203 L 49.039062 67.75 C 47.603825 65.614261 44.380114 62 38.5 62 C 35.406944 62 33.076998 62.772701 31.519531 63.552734 C 30.522893 64.051885 30.369829 64.26925 30 64.574219 L 30 39.623047 C 30.03818 39.530227 30.46668 38.512634 31.822266 37.384766 C 33.240585 36.204701 35.613951 35 39.519531 35 z M 61.519531 35 C 65.425111 35 67.798477 36.204701 69.216797 37.384766 C 70.572382 38.512634 71.000886 39.53023 71.039062 39.623047 L 71.039062 64.574219 C 70.669235 64.26925 70.51617 64.051885 69.519531 63.552734 C 67.962064 62.772701 65.63212 62 62.539062 62 C 56.658949 62 53.435237 65.614261 52 67.75 L 52 40.658203 C 52.068209 40.52445 54.905118 35 61.519531 35 z M 77.486328 36.570312 C 77.210328 36.570312 76.986328 36.794312 76.986328 37.070312 L 76.986328 39.070312 C 76.986328 39.346313 77.210328 39.570312 77.486328 39.570312 C 77.762328 39.570312 77.986328 39.347313 77.986328 39.070312 L 77.986328 37.070312 C 77.986328 36.794312 77.762328 36.570312 77.486328 36.570312 z M 77.486328 40.570312 C 77.210328 40.570312 76.986328 40.794312 76.986328 41.070312 L 76.986328 45.070312 C 76.986328 45.346313 77.210328 45.570312 77.486328 45.570312 C 77.762328 45.570312 77.986328 45.347313 77.986328 45.070312 L 77.986328 41.070312 C 77.986328 40.794312 77.762328 40.570312 77.486328 40.570312 z"/></svg>